<svg xmlns="http://www.w3.org/2000/svg" version="1.0" width="268.000000pt" height="188.000000pt" viewBox="0 0 268.000000 188.000000" preserveAspectRatio="xMidYMid meet">
<g transform="translate(0.000000,188.000000) scale(0.100000,-0.100000)" fill="#000000" stroke="none">


<path d="M1279 1661 c-38 -38 -40 -91 -4 -127 l24 -24 -37 -98 -38 -97 -165 -5 c-187 -6 -211 -14 -285 -92 -47 -48 -67 -83 -83 -145 -11 -40 -13 -42 -54 -45 l-42 -3 0 -180 0 -180 43 -3 42 -3 0 -98 c0 -62 4 -101 12 -109 9 -9 72 -12 220 -12 l208 0 0 -36 c0 -21 -4 -33 -10 -29 -6 3 -19 3 -31 0 -31 -10 -21 -49 14 -53 23 -3 27 -8 27 -37 0 -29 -4 -34 -27 -37 -22 -2 -28 -8 -28 -28 l0 -25 275 0 275 0 0 25 c0 20 -6 26 -27 28 -24 3 -28 8 -28 37 0 29 4 34 28 37 34 4 44 43 13 53 -12 3 -25 3 -31 0 -6 -4 -10 8 -10 29 l0 36 218 2 217 3 3 107 3 107 42 3 42 3 0 180 0 180 -45 5 c-42 5 -45 7 -52 43 -17 82 -83 167 -163 210 -35 19 -59 22 -205 25 l-165 4 -37 99 -36 100 24 24 c53 53 9 155 -66 155 -22 0 -41 -9 -61 -29z m85 -54 c16 -25 -16 -56 -38 -37 -19 15 -20 32 -4 48 15 15 28 11 42 -11z m0 -219 c9 -29 20 -59 23 -65 3 -10 -10 -13 -47 -13 -38 0 -51 3 -47 13 2 6 13 36 23 65 10 28 21 52 25 52 3 0 13 -24 23 -52z m437 -165 c69 -36 114 -94 129 -170 7 -32 14 -64 16 -70 2 -8 20 -13 44 -13 l40 0 0 -124 0 -125 -42 -3 -43 -3 -3 -107 -3 -108 -599 0 -599 0 -3 107 -3 108 -42 3 -43 3 0 129 c0 123 1 128 20 123 36 -9 70 5 70 30 0 44 29 122 60 159 16 20 53 48 82 62 l52 26 406 0 406 0 55 -27z m-301 -819 c0 -29 -3 -35 -16 -30 -9 3 -81 6 -160 6 l-144 0 0 30 0 30 160 0 160 0 0 -36z m0 -119 l0 -35 -160 0 -160 0 0 35 0 35 160 0 160 0 0 -35z"/>
<path d="M976 1055 c-152 -39 -185 -241 -54 -331 55 -39 144 -41 201 -6 98 61 117 203 39 285 -51 54 -111 71 -186 52z m114 -70 c38 -19 60 -63 60 -116 0 -33 -6 -47 -33 -74 -43 -43 -79 -52 -131 -34 -99 35 -116 167 -27 222 33 21 93 22 131 2z"/>
<path d="M981 914 c-25 -32 -26 -43 -5 -72 32 -46 114 -17 114 40 0 26 -36 58 -64 58 -15 0 -33 -11 -45 -26z"/>
<path d="M1635 1063 c-53 -9 -67 -16 -101 -45 -69 -61 -85 -156 -39 -234 36 -61 86 -89 161 -89 51 0 68 5 102 29 76 52 103 155 62 235 -17 35 -72 91 -88 91 -4 0 -23 4 -42 8 -19 5 -44 6 -55 5z m92 -83 c83 -52 63 -186 -33 -219 -52 -18 -88 -9 -131 34 -27 27 -33 41 -33 74 0 111 103 169 197 111z"/>
<path d="M1610 920 c-11 -11 -20 -29 -20 -39 0 -31 33 -63 65 -63 29 0 65 31 65 57 0 7 -9 24 -21 39 -25 31 -61 34 -89 6z"/>

</g>
</svg>